<?xml version="1.0" standalone="no"?><!DOCTYPE svg PUBLIC "-//W3C//DTD SVG 1.1//EN" "http://www.w3.org/Graphics/SVG/1.1/DTD/svg11.dtd"><svg t="1690445489822" class="icon" viewBox="0 0 1024 1024" version="1.1" xmlns="http://www.w3.org/2000/svg" p-id="16456" xmlns:xlink="http://www.w3.org/1999/xlink" width="200" height="200"><path d="M829.248 832H896v-288h-128v-32h128a32 32 0 0 1 32 32v288a32 32 0 0 1-32 32h-66.752l44.384 44.384a16 16 0 1 1-22.624 22.624L768 848l83.008-83.008a16 16 0 0 1 22.624 22.624L829.248 832zM128 544a32 32 0 0 1-32-32V224a32 32 0 0 1 32-32h128v32H128v288h81.056l-44.384-44.384a16 16 0 0 1 22.656-22.624L270.304 528l-82.976 83.008a16 16 0 0 1-22.656-22.624L209.056 544H128z m192-128h384a32 32 0 0 1 32 32v128a32 32 0 0 1-32 32H320a32 32 0 0 1-32-32v-128a32 32 0 0 1 32-32z m0 32v128h384v-128H320z m0 288h384a32 32 0 0 1 32 32v128a32 32 0 0 1-32 32H320a32 32 0 0 1-32-32v-128a32 32 0 0 1 32-32z m0 32v128h384v-128H320zM320 96h384a32 32 0 0 1 32 32v128a32 32 0 0 1-32 32H320a32 32 0 0 1-32-32V128a32 32 0 0 1 32-32z m0 32v128h384V128H320z" fill="#5D6D7E" p-id="16457"></path><path d="M304 432m32 0l352 0q32 0 32 32l0 96q0 32-32 32l-352 0q-32 0-32-32l0-96q0-32 32-32Z" fill="#C49F74" p-id="16458"></path><path d="M304 752m32 0l352 0q32 0 32 32l0 96q0 32-32 32l-352 0q-32 0-32-32l0-96q0-32 32-32Z" fill="#2FB49E" p-id="16459"></path><path d="M304 112m32 0l352 0q32 0 32 32l0 96q0 32-32 32l-352 0q-32 0-32-32l0-96q0-32 32-32Z" fill="#FFFFFF" p-id="16460"></path></svg>